<svg width="1024" height="1024" viewBox="0 0 32 32" fill="none" xmlns="http://www.w3.org/2000/svg">
  <defs>
    <linearGradient id="g" x1="4" y1="4" x2="28" y2="28" gradientUnits="userSpaceOnUse">
      <stop stop-color="#3388F7"/>
      <stop offset="1" stop-color="#8254E8"/>
    </linearGradient>
  </defs>
  <rect x="2" y="2" width="28" height="28" rx="9" fill="url(#g)"/>
  <path d="M22.3 13.3C21.3 10.8 19.1 9.3 16.1 9.3C12.2 9.3 9.4 12.1 9.4 16.1C9.4 20.2 12.2 22.8 16.2 22.8C19 22.8 21.1 21.7 22.7 19.8V15.2H16V18H19.4V18.7C18.6 19.5 17.6 19.9 16.3 19.9C14.2 19.9 12.8 18.4 12.8 16.1C12.8 13.8 14.2 12.2 16.2 12.2C17.6 12.2 18.6 12.8 19.2 13.9L22.3 13.3Z" fill="white"/>
</svg>
